<svg width="30" height="29" viewBox="0 0 30 29" fill="none" xmlns="http://www.w3.org/2000/svg">
<path fill-rule="evenodd" clip-rule="evenodd" d="M21.2678 10.0192C20.6619 10.3575 19.9239 10.3575 19.318 10.0192L16.9039 8.67146C16.2711 8.31812 15.8789 7.65002 15.8789 6.92519V4.34399C15.8789 3.61916 16.2711 2.95106 16.904 2.59772L19.318 1.24996C19.9239 0.911659 20.6619 0.911651 21.2678 1.24994L23.682 2.59773C24.3149 2.95106 24.7071 3.61917 24.7071 4.34402V6.92516C24.7071 7.65001 24.3149 8.31812 23.682 8.67145L21.2678 10.0192ZM8.7321 18.9808C9.33808 18.6425 10.0761 18.6425 10.6821 18.9809L13.0961 20.3287C13.729 20.6821 14.1211 21.3502 14.1211 22.075V24.656C14.1211 25.3808 13.7289 26.0489 13.096 26.4023L10.682 27.75C10.0761 28.0883 9.33811 28.0884 8.73216 27.7501L6.31798 26.4023C5.68508 26.0489 5.29289 25.3808 5.29289 24.656V22.075C5.29289 21.3502 5.68505 20.6821 6.31791 20.3288L8.7321 18.9808ZM7.80312 17.5369C8.43602 17.1835 8.8282 16.5154 8.8282 15.7906V13.2096C8.8282 12.4848 8.43604 11.8167 7.80318 11.4633L5.389 10.1154C4.78302 9.7771 4.04496 9.77711 3.43899 10.1155L1.02498 11.4633C0.39214 11.8167 0 12.4848 0 13.2096V15.7906C0 16.5154 0.392169 17.1835 1.02504 17.5369L3.43906 18.8846C4.04499 19.2229 4.78299 19.2229 5.38893 18.8847L7.80312 17.5369ZM21.1718 13.2096C21.1718 12.4848 21.564 11.8167 22.1968 11.4633L24.611 10.1154C25.217 9.7771 25.955 9.77711 26.561 10.1155L28.975 11.4633C29.6079 11.8167 30 12.4848 30 13.2096V15.7906C30 16.5154 29.6078 17.1835 28.975 17.5369L26.5609 18.8846C25.955 19.2229 25.217 19.2229 24.6111 18.8847L22.1969 17.5369C21.564 17.1835 21.1718 16.5154 21.1718 15.7906V13.2096ZM23.682 26.4023C24.3149 26.0489 24.7071 25.3808 24.7071 24.656V22.075C24.7071 21.3502 24.315 20.6821 23.6821 20.3288L21.2679 18.9808C20.6619 18.6425 19.9239 18.6425 19.3179 18.9809L16.9039 20.3287C16.271 20.6821 15.8789 21.3502 15.8789 22.075V24.656C15.8789 25.3808 16.2711 26.0489 16.9039 26.4023L19.318 27.75C19.9239 28.0883 20.6619 28.0884 21.2678 27.7501L23.682 26.4023ZM11.6111 17.5369C10.9782 17.1835 10.586 16.5154 10.586 15.7906V13.2096C10.586 12.4848 10.9782 11.8167 11.611 11.4633L14.025 10.1155C14.631 9.77711 15.369 9.7771 15.975 10.1154L18.3892 11.4633C19.0221 11.8167 19.4142 12.4848 19.4142 13.2096V15.7906C19.4142 16.5154 19.022 17.1835 18.3891 17.5369L15.9749 18.8847C15.369 19.2229 14.631 19.2229 14.0251 18.8846L11.6111 17.5369Z" fill="#F6A015"/>
</svg>
